<svg xmlns="http://www.w3.org/2000/svg" xmlns:xlink="http://www.w3.org/1999/xlink" preserveAspectRatio="none" viewBox="0 0 100 100"><defs><path d="M44.6 32.1h-.05q-8.5.05-14.4 6.2L9.05 60.15q-5.9 6.1-5.8 14.65.15 8.45 6.25 14.4l.05.05q.05.1.1.15l.6.55q.05.05.15.1l.15.15v-.05q.05.05.1.15 6 5.6 14.3 5.45 8.55-.15 14.5-6.25L56.3 72.05q-1.2.15-2.45.15-2.5.05-4.75-.4l-13.55 14q-4.35 4.55-10.65 4.6-6.15.05-10.55-4-.1-.1-.2-.25l-.1-.05-.1-.1.05.1-.9-.8q0-.1-.05-.15Q8.7 80.8 8.6 74.8v-.1q-.05-6.35 4.35-10.85L34 42q1.8-1.9 4.05-3v.1q2.85-1.55 6.55-1.65h.05q6.25-.1 10.75 4.2l.95.9q4.45 4.25 4.5 10.65.1 2.25-.45 4.35.7-.6 1.4-1.35v-.05l4.35-4.45v-.3q-.65-7.45-6.05-12.7v-.05l-.95-.9v.1q-5.6-5.45-13.25-5.75h-1.3m45.9-21.25l-.05-.05-.1-.1-.6-.55q-.05-.05-.1-.15-.1-.05-.2-.15v.05l-.1-.1q-5.95-5.6-14.3-5.5-8.55.2-14.5 6.25L43.7 28q1.2-.1 2.45-.1 2.5-.1 4.75.35l13.55-14Q68.8 9.7 75.1 9.65q6.15-.05 10.55 4l.25.25.05.05.1.1-.05-.1.9.85q0 .05.05.1 4.35 4.35 4.45 10.35v.15q.05 6.3-4.35 10.8L66 58.05q-1.8 1.95-4.05 3V61q-2.85 1.55-6.55 1.6h-.05q-6.25.1-10.75-4.15l-.95-.9q-4.45-4.3-4.5-10.65-.05-2.3.45-4.35-.7.6-1.4 1.3v.05l-4.35 4.45v.3q.65 7.45 6.05 12.7v.05l.95.9v-.05q5.6 5.4 13.25 5.7h1.35q8.5-.05 14.4-6.2l21.1-21.85q5.9-6.05 5.8-14.65-.15-8.45-6.25-14.4m19.25-26.5v-.05.05z" id="a"/></defs><use xlink:href="#a"/></svg>